<svg xmlns="http://www.w3.org/2000/svg" width="460" height="460" viewBox="0 0 460 460">
  <g>
    <path d="M230.0,230.0 C 264.0,184.0 288.0,126.0 274.0,80.0 C 264.0,46.0 288.0,24.0 326.0,16.0" fill="none" stroke="rgba(255,255,255,0.085)" stroke-width="2.4" stroke-linecap="round"/>
    <path d="M274.0,80.0 C 308.0,80.0 334.0,92.0 356.0,70.0 C 370.0,56.0 380.0,62.0 388.0,78.0" fill="none" stroke="rgba(255,255,255,0.085)" stroke-width="1.6" stroke-linecap="round"/>
    <path d="M230.0,230.0 C 248.0,212.0 270.0,208.0 288.0,188.0" fill="none" stroke="rgba(255,255,255,0.085)" stroke-width="1.1"/>
    <path d="M240.0,202.0 C 256.0,200.0 264.0,186.0 260.0,170.0" fill="none" stroke="rgba(255,255,255,0.085)" stroke-width="1"/>
    <path d="M280.0,110.0 Q306.5,100.8 307.0,72.8 Q280.6,82.0 280.0,110.0 Z" fill="rgba(255,255,255,0.05)" stroke="rgba(255,255,255,0.085)" stroke-width="1"/>
    <path d="M270.0,80.0 Q259.7,57.9 235.4,60.0 Q245.7,82.1 270.0,80.0 Z" fill="rgba(255,255,255,0.05)" stroke="rgba(255,255,255,0.085)" stroke-width="1"/>
    <path d="M356.0,70.0 Q379.7,67.1 386.6,44.3 Q363.0,47.2 356.0,70.0 Z" fill="rgba(255,255,255,0.05)" stroke="rgba(255,255,255,0.085)" stroke-width="1"/>
    <path d="M300.0,78.0 Q312.0,61.0 300.0,44.0 Q288.0,61.0 300.0,78.0 Z" fill="rgba(255,255,255,0.05)" stroke="rgba(255,255,255,0.085)" stroke-width="1"/>
    <circle cx="326" cy="16" r="3.2" fill="rgba(255,255,255,0.10)"/>
    <circle cx="388" cy="78" r="3.2" fill="rgba(255,255,255,0.10)"/>
    <circle cx="260" cy="170" r="3.2" fill="rgba(255,255,255,0.10)"/>
  </g>
  <g transform="translate(460,0) scale(-1,1)">
    <path d="M230.0,230.0 C 264.0,184.0 288.0,126.0 274.0,80.0 C 264.0,46.0 288.0,24.0 326.0,16.0" fill="none" stroke="rgba(255,255,255,0.085)" stroke-width="2.4" stroke-linecap="round"/>
    <path d="M274.0,80.0 C 308.0,80.0 334.0,92.0 356.0,70.0 C 370.0,56.0 380.0,62.0 388.0,78.0" fill="none" stroke="rgba(255,255,255,0.085)" stroke-width="1.6" stroke-linecap="round"/>
    <path d="M230.0,230.0 C 248.0,212.0 270.0,208.0 288.0,188.0" fill="none" stroke="rgba(255,255,255,0.085)" stroke-width="1.1"/>
    <path d="M240.0,202.0 C 256.0,200.0 264.0,186.0 260.0,170.0" fill="none" stroke="rgba(255,255,255,0.085)" stroke-width="1"/>
    <path d="M280.0,110.0 Q306.5,100.8 307.0,72.8 Q280.6,82.0 280.0,110.0 Z" fill="rgba(255,255,255,0.05)" stroke="rgba(255,255,255,0.085)" stroke-width="1"/>
    <path d="M270.0,80.0 Q259.7,57.9 235.4,60.0 Q245.7,82.1 270.0,80.0 Z" fill="rgba(255,255,255,0.05)" stroke="rgba(255,255,255,0.085)" stroke-width="1"/>
    <path d="M356.0,70.0 Q379.7,67.1 386.6,44.3 Q363.0,47.2 356.0,70.0 Z" fill="rgba(255,255,255,0.05)" stroke="rgba(255,255,255,0.085)" stroke-width="1"/>
    <path d="M300.0,78.0 Q312.0,61.0 300.0,44.0 Q288.0,61.0 300.0,78.0 Z" fill="rgba(255,255,255,0.05)" stroke="rgba(255,255,255,0.085)" stroke-width="1"/>
    <circle cx="326" cy="16" r="3.2" fill="rgba(255,255,255,0.10)"/>
    <circle cx="388" cy="78" r="3.2" fill="rgba(255,255,255,0.10)"/>
    <circle cx="260" cy="170" r="3.2" fill="rgba(255,255,255,0.10)"/>
  </g>
  <g transform="translate(0,460) scale(1,-1)">
    <path d="M230.0,230.0 C 264.0,184.0 288.0,126.0 274.0,80.0 C 264.0,46.0 288.0,24.0 326.0,16.0" fill="none" stroke="rgba(255,255,255,0.085)" stroke-width="2.4" stroke-linecap="round"/>
    <path d="M274.0,80.0 C 308.0,80.0 334.0,92.0 356.0,70.0 C 370.0,56.0 380.0,62.0 388.0,78.0" fill="none" stroke="rgba(255,255,255,0.085)" stroke-width="1.6" stroke-linecap="round"/>
    <path d="M230.0,230.0 C 248.0,212.0 270.0,208.0 288.0,188.0" fill="none" stroke="rgba(255,255,255,0.085)" stroke-width="1.1"/>
    <path d="M240.0,202.0 C 256.0,200.0 264.0,186.0 260.0,170.0" fill="none" stroke="rgba(255,255,255,0.085)" stroke-width="1"/>
    <path d="M280.0,110.0 Q306.5,100.8 307.0,72.8 Q280.6,82.0 280.0,110.0 Z" fill="rgba(255,255,255,0.05)" stroke="rgba(255,255,255,0.085)" stroke-width="1"/>
    <path d="M270.0,80.0 Q259.7,57.9 235.4,60.0 Q245.7,82.1 270.0,80.0 Z" fill="rgba(255,255,255,0.05)" stroke="rgba(255,255,255,0.085)" stroke-width="1"/>
    <path d="M356.0,70.0 Q379.7,67.1 386.6,44.3 Q363.0,47.2 356.0,70.0 Z" fill="rgba(255,255,255,0.05)" stroke="rgba(255,255,255,0.085)" stroke-width="1"/>
    <path d="M300.0,78.0 Q312.0,61.0 300.0,44.0 Q288.0,61.0 300.0,78.0 Z" fill="rgba(255,255,255,0.05)" stroke="rgba(255,255,255,0.085)" stroke-width="1"/>
    <circle cx="326" cy="16" r="3.2" fill="rgba(255,255,255,0.10)"/>
    <circle cx="388" cy="78" r="3.2" fill="rgba(255,255,255,0.10)"/>
    <circle cx="260" cy="170" r="3.2" fill="rgba(255,255,255,0.10)"/>
  </g>
  <g transform="translate(460,460) scale(-1,-1)">
    <path d="M230.0,230.0 C 264.0,184.0 288.0,126.0 274.0,80.0 C 264.0,46.0 288.0,24.0 326.0,16.0" fill="none" stroke="rgba(255,255,255,0.085)" stroke-width="2.4" stroke-linecap="round"/>
    <path d="M274.0,80.0 C 308.0,80.0 334.0,92.0 356.0,70.0 C 370.0,56.0 380.0,62.0 388.0,78.0" fill="none" stroke="rgba(255,255,255,0.085)" stroke-width="1.6" stroke-linecap="round"/>
    <path d="M230.0,230.0 C 248.0,212.0 270.0,208.0 288.0,188.0" fill="none" stroke="rgba(255,255,255,0.085)" stroke-width="1.1"/>
    <path d="M240.0,202.0 C 256.0,200.0 264.0,186.0 260.0,170.0" fill="none" stroke="rgba(255,255,255,0.085)" stroke-width="1"/>
    <path d="M280.0,110.0 Q306.5,100.8 307.0,72.8 Q280.6,82.0 280.0,110.0 Z" fill="rgba(255,255,255,0.05)" stroke="rgba(255,255,255,0.085)" stroke-width="1"/>
    <path d="M270.0,80.0 Q259.7,57.9 235.4,60.0 Q245.7,82.1 270.0,80.0 Z" fill="rgba(255,255,255,0.05)" stroke="rgba(255,255,255,0.085)" stroke-width="1"/>
    <path d="M356.0,70.0 Q379.7,67.1 386.6,44.3 Q363.0,47.2 356.0,70.0 Z" fill="rgba(255,255,255,0.05)" stroke="rgba(255,255,255,0.085)" stroke-width="1"/>
    <path d="M300.0,78.0 Q312.0,61.0 300.0,44.0 Q288.0,61.0 300.0,78.0 Z" fill="rgba(255,255,255,0.05)" stroke="rgba(255,255,255,0.085)" stroke-width="1"/>
    <circle cx="326" cy="16" r="3.2" fill="rgba(255,255,255,0.10)"/>
    <circle cx="388" cy="78" r="3.2" fill="rgba(255,255,255,0.10)"/>
    <circle cx="260" cy="170" r="3.2" fill="rgba(255,255,255,0.10)"/>
  </g>
</svg>